<?xml version="1.0" encoding="iso-8859-1"?>
<!-- Generator: Adobe Illustrator 19.0.0, SVG Export Plug-In . SVG Version: 6.00 Build 0)  -->
<svg version="1.1" id="Layer_1" xmlns="http://www.w3.org/2000/svg" xmlns:xlink="http://www.w3.org/1999/xlink" x="0px" y="0px"
	 viewBox="0 0 300 300" style="enable-background:new 0 0 300 300;" xml:space="preserve">
<g id="XMLID_1138_">
	<rect id="XMLID_1139_" x="150" y="150" style="fill:#EA348B;" width="150" height="150"/>
	<rect id="XMLID_1140_" x="150" y="150" style="fill:#AF2768;" width="75" height="150"/>
	<rect id="XMLID_1141_" x="150" style="fill:#FF9811;" width="150" height="150"/>
	<rect id="XMLID_1142_" x="150" style="fill:#FF5023;" width="75" height="150"/>
	<rect id="XMLID_1143_" y="150" style="fill:#FFDA44;" width="150" height="150"/>
	<rect id="XMLID_1144_" y="150" style="fill:#FF9811;" width="75" height="150"/>
	<rect id="XMLID_1145_" style="fill:#00D7DF;" width="150" height="150"/>
	<rect id="XMLID_1146_" style="fill:#00A0A6;" width="75" height="150"/>
	<polygon id="XMLID_1147_" style="fill:#804C09;" points="199.02,120 173.038,75 199.02,30 250.98,30 276.962,75 250.98,120 	"/>
	<polygon id="XMLID_1148_" style="fill:#402604;" points="199.02,120 173.038,75 199.02,30 225,30 225,120 	"/>
	<polygon id="XMLID_1149_" style="fill:#402604;" points="23.038,270 75,180 126.962,270 	"/>
	<polygon id="XMLID_1150_" style="fill:#804C09;" points="75,270 75,180 126.962,270 	"/>
	<circle id="XMLID_1151_" style="fill:#804C09;" cx="75" cy="75" r="45"/>
	<path id="XMLID_1152_" style="fill:#402604;" d="M75,30L75,30c-24.854,0-45,20.146-45,45l0,0c0,24.854,20.146,45,45,45l0,0"/>
	<rect id="XMLID_1153_" x="180" y="180" style="fill:#804C09;" width="90" height="90"/>
	<rect id="XMLID_1154_" x="180" y="180" style="fill:#402604;" width="45" height="90"/>
</g>
<g>
</g>
<g>
</g>
<g>
</g>
<g>
</g>
<g>
</g>
<g>
</g>
<g>
</g>
<g>
</g>
<g>
</g>
<g>
</g>
<g>
</g>
<g>
</g>
<g>
</g>
<g>
</g>
<g>
</g>
</svg>
